<?xml version="1.0" encoding="UTF-8" standalone="no"?>
<svg xmlns="http://www.w3.org/2000/svg" width="1024" height="1024" version="1.1">
<rect width="1024" height="1024" fill="white"/>
<path d="M312,968 L319,972 L320,971 L322,973 L330,977 L331,976 L335,979 L336,978 L333,976 L332,977 L330,975 L322,971 L321,972 L319,970 L313,967 Z" fill="#5b5f9b" stroke="none"/>
<path d="M261,945 L268,949 L269,948 L271,950 L277,953 L278,952 L280,954 L288,958 L289,957 L291,959 L297,962 L298,961 L300,963 L308,967 L309,966 L300,961 L299,962 L297,960 L291,957 L290,958 L288,956 L280,952 L279,953 L277,951 L271,948 L270,949 L268,947 L262,944 Z" fill="#5b5f9b" stroke="none"/>
<path d="M147,894 L154,898 L155,897 L157,899 L163,902 L164,901 L166,903 L172,906 L173,905 L175,907 L183,911 L184,910 L186,912 L192,915 L193,914 L195,916 L201,919 L202,918 L204,920 L210,923 L211,922 L213,924 L219,927 L220,926 L222,928 L230,932 L231,931 L233,933 L239,936 L240,935 L242,937 L248,940 L249,939 L251,941 L257,944 L258,943 L251,939 L250,940 L248,938 L242,935 L241,936 L239,934 L233,931 L232,932 L230,930 L222,926 L221,927 L219,925 L213,922 L212,923 L210,921 L204,918 L203,919 L201,917 L195,914 L194,915 L192,913 L186,910 L185,911 L183,909 L175,905 L174,906 L172,904 L166,901 L165,902 L163,900 L157,897 L156,898 L154,896 L148,893 Z" fill="#5b5f9b" stroke="none"/>
<path d="M990,844 L988,841 L987,842 L989,845 L985,847 L983,849 L982,848 L978,851 L977,850 L973,853 L972,852 L968,854 L966,856 L965,855 L961,858 L960,857 L956,860 L955,859 L951,861 L949,863 L948,862 L944,865 L943,864 L939,867 L938,866 L934,868 L932,870 L931,869 L928,871 L926,871 L922,873 L920,875 L919,874 L915,877 L914,876 L910,878 L908,880 L907,879 L903,882 L902,881 L899,883 L897,883 L893,885 L891,887 L890,886 L886,889 L885,888 L881,890 L879,892 L878,891 L874,894 L873,893 L869,895 L867,897 L866,896 L862,899 L861,898 L857,900 L855,902 L854,901 L850,904 L849,903 L845,906 L844,905 L841,907 L839,907 L835,909 L833,911 L832,910 L828,913 L827,912 L823,914 L821,916 L820,915 L816,918 L815,917 L811,920 L810,919 L806,921 L804,923 L803,922 L799,925 L798,924 L794,927 L793,926 L789,928 L787,930 L786,929 L782,932 L781,931 L777,934 L776,933 L772,935 L770,937 L769,936 L765,939 L764,938 L760,941 L759,940 L755,942 L753,944 L752,943 L748,946 L747,945 L743,948 L742,947 L738,949 L736,951 L735,950 L731,953 L730,952 L726,955 L725,954 L721,956 L719,958 L718,957 L714,960 L713,959 L709,962 L708,961 L704,963 L702,965 L701,964 L697,967 L696,966 L692,969 L691,968 L687,970 L685,972 L684,971 L680,974 L679,973 L675,976 L674,975 L669,978 L670,979 L674,977 L676,975 L677,976 L681,973 L682,974 L686,971 L687,972 L691,970 L693,968 L694,969 L698,966 L699,967 L703,964 L704,965 L708,963 L710,961 L711,962 L715,959 L716,960 L720,957 L721,958 L725,956 L727,954 L728,955 L732,952 L733,953 L737,950 L738,951 L742,949 L744,947 L745,948 L749,945 L750,946 L754,943 L755,944 L759,942 L761,940 L762,941 L766,938 L767,939 L771,936 L772,937 L776,935 L778,933 L779,934 L783,931 L784,932 L788,929 L789,930 L793,928 L795,926 L796,927 L800,924 L801,925 L805,922 L806,923 L810,921 L812,919 L813,920 L817,917 L818,918 L822,915 L823,916 L827,914 L829,912 L830,913 L834,910 L835,911 L838,909 L840,909 L844,907 L846,905 L847,906 L851,903 L852,904 L856,901 L857,902 L861,900 L863,898 L864,899 L868,896 L869,897 L873,895 L875,893 L876,894 L880,891 L881,892 L885,890 L887,888 L888,889 L892,886 L893,887 L896,885 L898,885 L902,883 L904,881 L905,882 L909,879 L910,880 L914,878 L916,876 L917,877 L921,874 L922,875 L925,873 L927,873 L931,871 L933,869 L934,870 L938,868 L940,866 L941,867 L945,864 L946,865 L950,862 L951,863 L955,861 L957,859 L958,860 L962,857 L963,858 L967,855 L968,856 L972,854 L974,852 L975,853 L979,850 L980,851 L984,848 L985,849 L990,846 L989,845 Z" fill="#5b5f9b" stroke="none"/>
<path d="M506,827 L516,837 L517,836 L518,837 L525,830 L524,829 L517,836 L507,826 Z" fill="#5b5f9b" stroke="none"/>
<path d="M50,810 L34,842 L37,845 L43,848 L44,847 L46,849 L56,854 L57,853 L59,855 L67,859 L68,858 L70,860 L78,864 L79,863 L81,865 L87,868 L88,867 L90,869 L98,873 L99,872 L101,874 L107,877 L108,876 L110,878 L116,881 L117,880 L119,882 L125,885 L126,884 L128,886 L134,889 L135,888 L137,890 L143,893 L144,892 L137,888 L136,889 L134,887 L128,884 L127,885 L125,883 L119,880 L118,881 L116,879 L110,876 L109,877 L107,875 L101,872 L100,873 L98,871 L90,867 L89,868 L87,866 L81,863 L80,864 L78,862 L70,858 L69,859 L67,857 L59,853 L58,854 L56,852 L46,847 L45,848 L43,846 L38,844 L36,842 L36,841 L52,810 L51,809 Z" fill="#5b5f9b" stroke="none"/>
<path d="M917,759 L946,774 L947,773 L918,758 Z" fill="#5b5f9b" stroke="none"/>
<path d="M878,739 L911,756 L912,755 L879,738 Z" fill="#5b5f9b" stroke="none"/>
<path d="M843,721 L874,737 L875,736 L844,720 Z" fill="#5b5f9b" stroke="none"/>
<path d="M802,700 L835,717 L836,716 L803,699 Z" fill="#5b5f9b" stroke="none"/>
<path d="M757,677 L794,696 L795,695 L758,676 Z" fill="#5b5f9b" stroke="none"/>
<path d="M711,625 L710,626 L713,629 L714,632 L716,634 L715,635 L717,637 L716,638 L719,642 L718,643 L721,647 L720,648 L723,652 L722,653 L723,654 L723,656 L725,660 L727,662 L751,674 L752,673 L751,672 L728,661 L726,659 L725,655 L722,651 L723,650 L720,646 L721,645 L718,641 L719,640 L716,636 L717,635 L715,633 L716,632 L714,628 Z" fill="#5b5f9b" stroke="none"/>
<path d="M366,625 L365,626 L365,642 L366,643 L367,642 L367,626 Z" fill="#5b5f9b" stroke="none"/>
<path d="M331,607 L330,606 L327,611 L328,612 L326,614 L324,618 L325,619 L323,621 L321,625 L322,626 L320,628 L317,634 L318,635 L316,637 L314,641 L315,642 L313,644 L311,648 L312,649 L310,651 L308,655 L308,657 L304,661 L303,660 L299,663 L298,662 L295,664 L293,664 L289,666 L287,668 L286,667 L282,670 L281,669 L277,672 L276,671 L272,674 L271,673 L267,675 L265,677 L264,676 L260,679 L259,678 L255,681 L254,680 L250,683 L249,682 L246,684 L244,684 L240,686 L238,688 L237,687 L233,690 L232,689 L228,691 L226,693 L225,692 L221,695 L220,694 L216,697 L215,696 L212,698 L210,698 L206,700 L204,702 L203,701 L199,704 L198,703 L195,705 L193,705 L189,707 L187,709 L186,708 L182,711 L181,710 L177,713 L176,712 L173,714 L171,714 L167,716 L165,718 L164,717 L160,720 L159,719 L155,722 L154,721 L150,724 L149,723 L145,725 L143,727 L142,726 L138,729 L137,728 L133,731 L132,730 L128,732 L126,734 L125,733 L121,736 L120,735 L116,738 L115,737 L111,740 L110,739 L106,741 L104,743 L103,742 L99,745 L98,744 L94,747 L93,746 L89,748 L87,750 L86,749 L80,752 L55,801 L56,802 L57,801 L80,754 L86,751 L88,749 L89,750 L93,748 L95,746 L96,747 L100,744 L101,745 L105,742 L106,743 L110,741 L112,739 L113,740 L117,737 L118,738 L122,735 L123,736 L127,733 L128,734 L132,732 L134,730 L135,731 L139,728 L140,729 L144,726 L145,727 L149,725 L151,723 L152,724 L156,721 L157,722 L161,719 L162,720 L166,717 L167,718 L170,716 L172,716 L176,714 L178,712 L179,713 L183,710 L184,711 L188,708 L189,709 L192,707 L194,707 L198,705 L200,703 L201,704 L205,701 L206,702 L209,700 L211,700 L215,698 L217,696 L218,697 L222,694 L223,695 L227,692 L228,693 L232,691 L234,689 L235,690 L239,687 L240,688 L243,686 L245,686 L249,684 L251,682 L252,683 L256,680 L257,681 L261,678 L262,679 L266,676 L267,677 L271,675 L273,673 L274,674 L278,671 L279,672 L283,669 L284,670 L288,667 L289,668 L292,666 L294,666 L298,664 L300,662 L301,663 L305,660 L306,661 L310,656 L310,654 L312,651 L311,650 L313,648 L315,644 L314,643 L316,641 L318,637 L317,636 L319,634 L322,628 L321,627 L323,625 L325,621 L324,620 L326,618 L328,614 L327,613 L329,611 Z" fill="#5b5f9b" stroke="none"/>
<path d="M367,590 L366,591 L366,605 L367,606 L368,605 L368,591 Z" fill="#5b5f9b" stroke="none"/>
<path d="M508,485 L509,486 L529,486 L530,485 L529,484 L509,484 Z" fill="#5b5f9b" stroke="none"/>
<path d="M460,484 L461,485 L479,485 L480,484 L479,483 L461,483 Z" fill="#5b5f9b" stroke="none"/>
<path d="M561,486 L559,484 L555,482 L554,483 L552,481 L548,479 L546,479 L538,475 L537,476 L533,473 L532,474 L528,471 L527,472 L525,470 L521,469 L518,467 L517,468 L515,466 L514,467 L511,466 L509,468 L508,467 L506,469 L504,468 L502,470 L500,469 L498,471 L496,470 L494,472 L492,471 L490,473 L488,472 L486,474 L484,473 L482,475 L480,474 L478,476 L476,475 L474,477 L473,476 L471,478 L469,477 L467,479 L466,478 L464,480 L462,479 L460,481 L459,480 L457,482 L455,481 L453,483 L452,482 L450,483 L450,484 L452,485 L454,482 L456,483 L458,481 L459,482 L461,480 L463,481 L465,479 L466,480 L468,478 L470,479 L472,477 L473,478 L475,476 L477,477 L479,475 L481,476 L483,474 L485,475 L487,473 L489,474 L491,472 L493,473 L495,471 L497,472 L499,470 L500,471 L501,471 L503,469 L505,470 L507,468 L508,469 L510,467 L511,468 L513,467 L515,468 L516,467 L518,469 L522,471 L524,471 L525,472 L526,471 L528,473 L530,474 L531,473 L535,476 L536,475 L538,477 L542,479 L544,479 L552,483 L553,482 L555,484 L552,486 L553,487 L560,487 Z" fill="#5b5f9b" stroke="none"/>
<path d="M583,460 L582,461 L593,482 L594,481 Z" fill="#5b5f9b" stroke="none"/>
<path d="M546,445 L547,446 L548,445 L552,448 L553,447 L557,450 L558,449 L562,452 L563,451 L567,454 L568,453 L572,456 L573,455 L577,458 L578,457 L580,459 L581,458 L580,457 L579,458 L575,455 L574,456 L570,453 L569,454 L565,451 L564,452 L560,449 L559,450 L557,448 L555,447 L554,448 L552,446 L551,446 L550,445 L553,442 L555,443 L557,441 L558,442 L560,440 L561,441 L562,440 L561,439 L559,441 L558,440 L556,442 L554,441 L552,443 L551,442 L549,444 L548,443 Z" fill="#5b5f9b" stroke="none"/>
<path d="M484,436 L481,434 L479,434 L478,433 L470,431 L469,430 L469,429 L471,427 L470,426 L467,429 L468,430 L467,431 L468,432 L470,432 L471,433 L479,435 L480,436 L479,438 L478,438 L476,440 L475,439 L471,442 L470,441 L466,444 L465,443 L461,446 L460,445 L457,447 L455,447 L451,449 L449,451 L448,450 L446,451 L444,453 L443,452 L439,455 L438,454 L434,457 L433,456 L429,459 L428,458 L426,459 L423,462 L424,463 L422,465 L420,469 L421,470 L419,472 L417,476 L418,477 L416,479 L414,483 L414,485 L413,486 L414,487 L412,489 L411,493 L412,494 L413,493 L413,490 L414,489 L413,488 L415,486 L416,482 L418,479 L417,478 L419,476 L421,472 L420,471 L422,469 L424,465 L423,464 L427,460 L428,460 L430,458 L431,459 L435,456 L436,457 L440,454 L441,455 L445,452 L446,453 L450,450 L451,451 L454,449 L456,449 L460,447 L462,445 L463,446 L465,445 L467,443 L468,444 L472,441 L473,442 L477,439 L478,440 L482,437 L483,438 Z" fill="#5b5f9b" stroke="none"/>
<path d="M489,422 L490,423 L491,422 L493,424 L494,423 L496,425 L498,425 L499,426 L501,425 L503,427 L504,426 L506,428 L507,427 L509,429 L511,428 L512,429 L514,427 L515,428 L519,425 L520,426 L524,423 L525,424 L527,423 L539,430 L540,430 L547,423 L546,422 L540,428 L538,428 L534,425 L528,422 L527,423 L525,422 L523,424 L522,423 L518,426 L517,425 L515,426 L513,428 L512,427 L511,428 L510,427 L508,428 L506,426 L505,427 L503,425 L502,426 L500,424 L498,424 L497,423 L495,424 L493,422 L492,423 L490,421 Z" fill="#5b5f9b" stroke="none"/>
<path d="M538,388 L537,389 L539,391 L538,393 L540,395 L539,397 L541,399 L540,401 L542,403 L541,404 L543,406 L542,408 L544,410 L543,412 L545,414 L544,415 L546,417 L545,418 L546,420 L547,418 L545,416 L546,415 L544,413 L545,411 L543,409 L544,407 L542,405 L543,404 L541,402 L542,400 L540,398 L541,396 L539,394 L540,392 L538,390 L539,389 Z" fill="#5b5f9b" stroke="none"/>
<path d="M329,376 L328,377 L328,399 L329,400 L330,399 L330,377 Z" fill="#5b5f9b" stroke="none"/>
<path d="M537,354 L535,356 L537,358 L536,359 L538,361 L537,362 L539,364 L538,365 L540,367 L539,368 L541,370 L540,372 L541,373 L541,375 L542,376 L542,378 L543,379 L543,381 L544,382 L544,384 L545,385 L545,387 L546,388 L546,390 L547,391 L547,393 L548,394 L548,396 L549,397 L549,399 L550,400 L550,402 L551,403 L551,405 L552,406 L552,408 L553,409 L553,411 L554,412 L554,414 L555,415 L555,417 L556,418 L556,420 L557,421 L557,423 L558,424 L558,426 L559,427 L561,435 L563,438 L564,437 L563,436 L563,434 L562,433 L562,431 L561,430 L561,428 L560,427 L560,425 L559,424 L559,422 L558,421 L558,419 L557,418 L557,416 L556,415 L556,413 L555,412 L555,410 L554,409 L554,407 L553,406 L553,404 L552,403 L552,401 L551,400 L551,398 L550,397 L550,395 L549,394 L549,392 L548,391 L548,389 L547,388 L547,386 L546,385 L546,383 L545,382 L545,380 L544,379 L542,371 L540,369 L541,368 L539,366 L540,365 L538,363 L539,362 L537,360 L538,359 L536,357 L538,355 Z" fill="#5b5f9b" stroke="none"/>
<path d="M527,345 L526,346 L528,348 L527,350 L529,352 L528,354 L530,356 L529,358 L531,360 L530,362 L532,364 L531,366 L533,368 L532,370 L534,372 L533,374 L535,376 L534,378 L536,380 L535,382 L537,384 L536,385 L537,386 L538,385 L536,383 L537,381 L535,379 L536,377 L534,375 L535,373 L533,371 L534,369 L532,367 L533,365 L531,363 L532,361 L530,359 L531,357 L529,355 L530,353 L528,351 L529,349 L527,347 L528,346 Z" fill="#5b5f9b" stroke="none"/>
<path d="M421,340 L426,347 L426,348 L429,351 L444,351 L445,350 L444,349 L429,349 L427,347 L422,339 Z" fill="#5b5f9b" stroke="none"/>
<path d="M606,307 L595,307 L594,308 L587,308 L586,309 L581,309 L580,310 L575,310 L574,311 L570,311 L569,312 L560,313 L559,314 L556,314 L552,316 L555,318 L558,318 L559,319 L562,319 L563,320 L566,320 L567,321 L570,321 L571,322 L575,322 L576,323 L585,324 L586,325 L589,325 L590,326 L593,326 L594,327 L598,328 L600,330 L601,330 L603,332 L604,332 L606,334 L613,338 L619,343 L619,345 L620,346 L620,348 L621,349 L621,351 L623,355 L624,362 L625,363 L624,365 L619,362 L618,363 L622,365 L625,368 L625,373 L624,374 L624,378 L623,379 L623,383 L622,384 L622,388 L621,389 L621,393 L620,394 L620,398 L619,399 L619,403 L618,404 L618,408 L617,409 L617,413 L616,414 L616,418 L615,419 L615,424 L614,425 L614,429 L613,430 L613,434 L612,435 L612,439 L611,440 L611,444 L610,445 L610,449 L609,450 L609,455 L608,456 L608,460 L607,461 L607,465 L606,466 L606,470 L605,471 L605,475 L604,476 L604,480 L603,481 L602,490 L600,492 L597,486 L596,485 L595,486 L600,495 L600,498 L593,510 L588,505 L587,506 L592,511 L592,513 L590,517 L588,519 L586,524 L584,526 L582,531 L580,533 L578,538 L573,545 L571,550 L569,552 L567,552 L565,554 L563,553 L561,555 L559,554 L557,556 L555,555 L553,557 L551,556 L549,558 L547,557 L545,559 L543,558 L541,560 L539,559 L537,561 L535,560 L533,562 L532,561 L531,561 L529,563 L528,562 L524,564 L522,566 L521,565 L515,568 L513,570 L512,569 L506,572 L504,574 L503,573 L498,576 L496,575 L495,576 L493,574 L492,575 L490,573 L489,574 L487,572 L486,573 L484,571 L482,571 L481,570 L479,571 L477,569 L476,570 L474,568 L473,569 L471,567 L470,568 L468,566 L466,565 L465,566 L463,564 L461,565 L459,563 L457,564 L455,562 L454,563 L452,561 L450,562 L448,560 L446,561 L444,559 L443,560 L441,558 L439,559 L437,557 L435,558 L433,556 L431,557 L429,555 L428,556 L426,554 L424,556 L423,558 L424,559 L422,561 L419,567 L421,569 L420,570 L420,571 L422,573 L421,575 L422,576 L423,575 L423,574 L421,572 L422,570 L420,568 L424,561 L423,560 L427,555 L429,557 L430,556 L432,558 L434,557 L436,559 L438,558 L440,560 L442,559 L444,561 L445,560 L447,562 L449,561 L451,563 L453,562 L455,564 L456,563 L458,565 L460,564 L462,566 L464,565 L468,568 L469,567 L471,569 L472,568 L474,570 L475,569 L477,571 L478,570 L480,572 L482,572 L483,573 L485,572 L487,574 L488,573 L490,575 L491,574 L493,576 L494,575 L496,577 L497,576 L499,577 L503,575 L505,573 L506,574 L512,571 L514,569 L515,570 L521,567 L523,565 L524,566 L528,564 L530,562 L532,563 L534,561 L536,562 L538,560 L540,561 L542,559 L544,560 L546,558 L548,559 L550,557 L552,558 L554,556 L556,557 L558,555 L560,556 L562,554 L564,555 L566,553 L567,554 L570,553 L575,560 L576,563 L580,568 L581,571 L589,582 L590,586 L588,590 L586,592 L584,597 L582,599 L580,604 L578,606 L575,613 L573,615 L571,620 L569,622 L567,627 L565,629 L563,634 L561,636 L558,643 L556,645 L552,653 L550,655 L546,657 L543,660 L542,660 L534,666 L531,667 L529,669 L528,669 L526,671 L519,675 L520,676 L520,683 L519,684 L519,697 L518,698 L518,712 L517,713 L517,726 L516,727 L516,736 L519,739 L519,740 L521,742 L523,746 L526,749 L526,750 L528,752 L532,759 L535,762 L539,769 L542,772 L542,773 L544,775 L548,782 L551,785 L551,786 L553,788 L557,795 L571,780 L571,779 L581,769 L581,768 L590,759 L590,758 L598,750 L598,749 L606,741 L606,740 L614,732 L614,731 L623,722 L623,721 L627,716 L628,713 L630,711 L633,704 L635,702 L637,697 L639,695 L641,690 L643,688 L646,681 L648,679 L650,674 L652,672 L656,663 L658,661 L660,656 L663,652 L663,629 L662,628 L661,629 L661,638 L660,639 L651,632 L652,630 L652,621 L653,620 L653,610 L654,609 L654,598 L655,597 L655,588 L656,587 L656,577 L657,576 L658,557 L659,556 L659,552 L658,551 L660,547 L659,543 L660,542 L660,539 L661,538 L661,534 L660,533 L661,532 L661,528 L662,527 L661,523 L663,519 L663,515 L662,514 L663,513 L663,510 L662,509 L664,507 L664,497 L663,496 L663,481 L662,480 L662,467 L661,466 L661,451 L660,450 L660,436 L659,435 L659,421 L658,420 L658,407 L657,406 L657,392 L656,391 L656,377 L655,376 L655,363 L654,362 L654,347 L653,346 L653,332 L652,331 L652,325 L650,323 L648,323 L645,321 L643,321 L642,320 L637,319 L634,317 L629,316 L626,314 L624,314 L623,313 L621,313 L620,312 L618,312 L617,311 L609,309 Z" fill="#5b5f9b" stroke="none"/>
<path d="M416,306 L415,305 L409,305 L393,313 L391,315 L385,318 L386,319 L392,316 L394,314 L408,307 L415,307 Z" fill="#5b5f9b" stroke="none"/>
<path d="M382,302 L380,304 L381,305 L378,309 L379,310 L377,312 L376,314 L377,315 L375,317 L374,321 L372,324 L374,326 L376,324 L384,320 L383,319 L376,323 L375,322 L376,318 L377,317 L376,316 L378,314 L379,312 L378,311 L381,307 L380,306 L383,303 Z" fill="#5b5f9b" stroke="none"/>
<path d="M656,298 L655,299 L669,326 L669,495 L671,496 L672,494 L677,489 L678,489 L695,472 L696,472 L705,463 L706,461 L706,457 L707,456 L707,452 L708,451 L708,447 L709,446 L709,441 L710,440 L710,436 L711,435 L711,431 L712,430 L712,426 L713,425 L713,421 L714,420 L714,416 L715,415 L715,411 L716,410 L716,406 L717,405 L717,401 L718,400 L718,396 L719,395 L719,391 L720,390 L720,385 L721,384 L721,380 L722,379 L722,376 L723,374 L715,365 L715,364 L712,361 L712,359 L711,358 L710,360 L698,371 L697,371 L693,375 L692,377 L691,387 L690,388 L690,393 L689,394 L689,399 L688,400 L688,404 L687,405 L686,417 L685,418 L685,424 L684,425 L684,430 L683,431 L683,436 L682,437 L682,443 L681,444 L680,455 L679,456 L679,460 L678,461 L677,468 L675,472 L675,475 L673,479 L673,482 L672,483 L671,482 L671,327 Z" fill="#5b5f9b" stroke="none"/>
<path d="M718,196 L717,197 L722,207 L724,209 L723,210 L726,215 L726,218 L727,219 L728,218 L728,216 L725,210 L723,208 L724,207 Z" fill="#5b5f9b" stroke="none"/>
<path d="M381,176 L378,180 L379,182 L376,186 L376,188 L375,189 L375,191 L374,192 L374,194 L373,195 L373,197 L372,198 L372,200 L371,201 L371,203 L370,204 L370,206 L369,207 L369,209 L368,210 L368,212 L367,213 L367,215 L366,216 L366,218 L365,219 L365,221 L364,222 L364,224 L363,225 L363,227 L362,228 L362,230 L361,231 L361,233 L359,237 L360,238 L358,240 L359,241 L360,240 L359,239 L362,235 L362,233 L363,232 L363,230 L364,229 L364,227 L365,226 L365,224 L366,223 L366,221 L367,220 L367,218 L368,217 L368,215 L369,214 L369,212 L370,211 L370,209 L371,208 L371,206 L372,205 L372,203 L373,202 L373,200 L374,199 L374,197 L375,196 L375,194 L376,193 L376,191 L377,190 L377,188 L379,184 L378,183 L380,181 L380,179 L382,177 Z" fill="#5b5f9b" stroke="none"/>
<path d="M608,171 L609,172 L624,172 L625,171 L624,170 L609,170 Z" fill="#5b5f9b" stroke="none"/>
<path d="M543,170 L544,171 L574,171 L575,170 L574,169 L544,169 Z" fill="#5b5f9b" stroke="none"/>
<path d="M694,145 L693,146 L695,150 L697,152 L696,153 L706,173 L708,175 L707,176 L716,193 L717,192 L709,176 L707,174 L708,173 L698,153 L696,151 L697,150 Z" fill="#5b5f9b" stroke="none"/>
<path d="M343,135 L333,145 L332,147 L333,148 L330,152 L331,153 L328,157 L329,158 L326,162 L327,163 L324,167 L325,168 L322,172 L323,173 L320,177 L321,178 L318,182 L319,183 L317,185 L316,187 L317,188 L315,190 L314,194 L312,197 L312,199 L311,200 L312,201 L310,203 L309,205 L310,206 L307,210 L308,211 L305,215 L306,217 L308,213 L307,212 L310,208 L309,207 L312,203 L311,202 L313,200 L314,196 L316,193 L316,191 L317,190 L316,189 L319,185 L318,184 L321,180 L320,179 L323,175 L322,174 L325,170 L324,169 L327,165 L326,164 L329,160 L328,159 L331,155 L330,154 L333,150 L332,149 L334,147 L334,146 L344,136 Z" fill="#5b5f9b" stroke="none"/>
<path d="M408,86 L407,85 L397,90 L395,92 L394,91 L384,96 L377,103 L378,104 L385,97 L394,93 L396,91 L397,92 Z" fill="#5b5f9b" stroke="none"/>
<path d="M449,67 L448,66 L440,70 L438,72 L437,71 L427,76 L425,78 L424,77 L411,84 L412,85 L424,79 L426,77 L427,78 L437,73 L439,71 L440,72 Z" fill="#5b5f9b" stroke="none"/>
<path d="M552,55 L553,56 L555,55 L557,57 L559,56 L561,58 L563,57 L565,59 L567,58 L569,60 L571,59 L573,61 L575,60 L577,62 L579,61 L581,63 L583,62 L585,64 L587,63 L586,62 L584,63 L582,61 L580,62 L578,60 L576,61 L574,59 L572,60 L570,58 L568,59 L566,57 L564,58 L562,56 L560,57 L558,55 L556,56 L554,54 Z" fill="#5b5f9b" stroke="none"/>
<path d="M496,46 L495,45 L493,47 L492,46 L486,49 L484,51 L483,50 L475,54 L473,56 L472,55 L464,59 L462,61 L461,60 L452,65 L453,66 L461,62 L463,60 L464,61 L472,57 L474,55 L475,56 L483,52 L485,50 L486,51 L492,48 L494,46 L495,47 Z" fill="#5b5f9b" stroke="none"/>
<path d="M34,843 L44,848 L46,848 L57,854 L59,854 L68,859 L70,859 L79,864 L81,864 L88,868 L90,868 L99,873 L101,873 L108,877 L110,877 L117,881 L119,881 L126,885 L128,885 L135,889 L137,889 L146,894 L148,894 L155,898 L157,898 L164,902 L166,902 L173,906 L175,906 L184,911 L186,911 L193,915 L195,915 L202,919 L204,919 L211,923 L213,923 L220,927 L222,927 L231,932 L233,932 L240,936 L242,936 L249,940 L251,940 L260,945 L262,945 L269,949 L271,949 L278,953 L280,953 L289,958 L291,958 L298,962 L300,962 L311,968 L313,968 L320,972 L322,972 L336,979 L669,979 L674,976 L676,976 L679,974 L681,974 L684,972 L686,972 L691,969 L693,969 L696,967 L698,967 L701,965 L703,965 L708,962 L710,962 L713,960 L715,960 L718,958 L720,958 L725,955 L727,955 L730,953 L732,953 L735,951 L737,951 L742,948 L744,948 L747,946 L749,946 L752,944 L754,944 L759,941 L761,941 L764,939 L766,939 L769,937 L771,937 L776,934 L778,934 L781,932 L783,932 L786,930 L788,930 L793,927 L795,927 L798,925 L800,925 L803,923 L805,923 L810,920 L812,920 L815,918 L817,918 L820,916 L822,916 L827,913 L829,913 L832,911 L834,911 L839,908 L841,908 L844,906 L846,906 L849,904 L851,904 L854,902 L856,902 L861,899 L863,899 L866,897 L868,897 L873,894 L875,894 L878,892 L880,892 L885,889 L887,889 L890,887 L892,887 L897,884 L899,884 L902,882 L904,882 L907,880 L909,880 L914,877 L916,877 L919,875 L921,875 L926,872 L928,872 L931,870 L933,870 L938,867 L940,867 L943,865 L945,865 L948,863 L950,863 L955,860 L957,860 L960,858 L962,858 L965,856 L967,856 L972,853 L974,853 L977,851 L979,851 L982,849 L984,849 L988,847 L990,845 L988,841 L986,839 L985,836 L983,834 L978,824 L976,822 L974,817 L969,810 L967,805 L962,798 L960,793 L958,791 L957,788 L952,781 L950,776 L947,773 L918,759 L916,757 L879,739 L877,737 L844,721 L842,719 L803,700 L801,698 L727,661 L724,656 L723,651 L721,648 L721,646 L719,643 L719,641 L717,638 L717,636 L716,635 L716,633 L714,629 L704,620 L703,620 L696,614 L692,612 L689,609 L688,609 L685,606 L684,606 L681,603 L680,603 L677,600 L673,598 L669,594 L668,594 L663,590 L662,591 L662,652 L659,656 L657,661 L655,663 L651,672 L649,674 L647,679 L645,681 L642,688 L640,690 L634,702 L632,704 L629,711 L627,713 L626,716 L624,718 L622,722 L613,731 L613,732 L605,740 L605,741 L597,749 L597,750 L589,758 L589,759 L580,768 L580,769 L570,779 L570,780 L562,788 L562,789 L524,829 L524,830 L518,836 L516,836 L480,801 L479,801 L442,766 L441,766 L421,747 L420,747 L409,736 L408,733 L392,710 L391,707 L389,705 L389,704 L387,702 L387,701 L385,699 L385,698 L383,696 L383,695 L381,693 L381,692 L365,669 L365,666 L366,665 L366,626 L367,625 L367,591 L368,590 L368,583 L367,582 L364,583 L353,591 L350,592 L330,606 L327,612 L327,614 L324,619 L324,621 L321,626 L321,628 L314,642 L314,644 L311,649 L311,651 L309,654 L309,656 L306,660 L304,660 L294,665 L292,665 L289,667 L287,667 L284,669 L282,669 L279,671 L277,671 L274,673 L272,673 L267,676 L265,676 L262,678 L260,678 L257,680 L255,680 L252,682 L250,682 L245,685 L243,685 L240,687 L238,687 L235,689 L233,689 L228,692 L226,692 L223,694 L221,694 L218,696 L216,696 L211,699 L209,699 L206,701 L204,701 L201,703 L199,703 L194,706 L192,706 L189,708 L187,708 L184,710 L182,710 L179,712 L177,712 L172,715 L170,715 L167,717 L165,717 L162,719 L160,719 L157,721 L155,721 L152,723 L150,723 L145,726 L143,726 L140,728 L138,728 L135,730 L133,730 L128,733 L126,733 L123,735 L121,735 L118,737 L116,737 L113,739 L111,739 L106,742 L104,742 L101,744 L99,744 L96,746 L94,746 L89,749 L87,749 L81,752 L79,754 L56,801 L54,803 L54,805 L52,807 Z" fill="#131213" stroke="none"/>
<path d="M591,584 L584,574 L584,573 L582,571 L581,568 L577,563 L576,560 L570,552 L568,553 L565,553 L564,554 L561,554 L560,555 L557,555 L556,556 L553,556 L552,557 L549,557 L548,558 L545,558 L544,559 L541,559 L540,560 L537,560 L536,561 L533,561 L532,562 L529,562 L524,565 L522,565 L515,569 L513,569 L499,576 L496,576 L495,575 L493,575 L492,574 L490,574 L486,572 L483,572 L482,571 L480,571 L479,570 L477,570 L476,569 L468,567 L465,565 L462,565 L461,564 L458,564 L454,562 L447,561 L443,559 L440,559 L439,558 L432,557 L428,555 L426,555 L424,557 L423,561 L420,566 L420,569 L421,570 L421,573 L422,574 L422,578 L423,579 L423,582 L424,583 L424,586 L425,587 L425,590 L426,591 L426,594 L427,595 L427,598 L428,599 L428,603 L429,604 L429,607 L430,608 L430,611 L431,612 L431,615 L432,616 L432,619 L433,620 L433,623 L434,624 L434,628 L435,629 L435,631 L448,645 L448,646 L454,652 L454,653 L459,658 L459,659 L462,662 L464,662 L465,663 L473,664 L474,665 L477,665 L478,666 L482,666 L483,667 L486,667 L487,668 L490,668 L491,669 L494,669 L495,670 L498,670 L499,671 L503,671 L504,672 L507,672 L508,673 L511,673 L512,674 L516,674 L517,675 L521,675 L523,674 L525,672 L526,672 L531,668 L534,667 L554,653 L553,652 L555,650 L562,636 L564,634 L566,629 L568,627 L570,622 L572,620 L574,615 L576,613 L579,606 L581,604 L583,599 L585,597 L587,592 L589,590 L591,586 Z" fill="#131213" stroke="none"/>
<path d="M312,367 L311,368 L312,369 L312,378 L313,379 L314,398 L315,399 L316,415 L317,416 L318,430 L319,431 L319,437 L320,438 L321,437 L321,418 L322,417 L322,400 L323,399 L323,385 L320,379 L318,377 L317,374 L315,372 L314,369 Z" fill="#131213" stroke="none"/>
<path d="M479,333 L475,329 L475,328 L464,317 L461,317 L460,318 L452,318 L451,319 L440,319 L439,320 L429,320 L428,321 L423,321 L413,328 L412,328 L410,330 L409,330 L407,332 L406,332 L385,357 L387,358 L389,356 L390,356 L392,354 L393,354 L395,352 L396,352 L398,350 L405,346 L412,340 L416,338 L420,334 L421,335 L421,339 L428,350 L444,350 L447,347 L447,346 L452,339 L452,336 L451,335 L451,330 L452,329 L462,338 L463,338 L469,344 L471,344 L473,342 L473,341 L476,338 L476,337 L479,334 Z" fill="#131213" stroke="none"/>
<path d="M650,323 L627,301 L626,301 L619,294 L618,294 L613,289 L611,288 L596,288 L595,289 L571,289 L570,290 L549,290 L548,291 L544,291 L541,294 L541,295 L526,314 L524,318 L521,321 L521,326 L522,327 L522,330 L524,334 L524,337 L525,338 L526,345 L528,349 L528,352 L529,353 L529,356 L530,357 L530,360 L531,361 L531,364 L532,365 L532,368 L533,369 L533,372 L534,373 L534,376 L535,377 L535,380 L536,381 L537,388 L539,392 L539,395 L540,396 L541,403 L542,404 L543,410 L544,411 L544,414 L546,418 L546,423 L540,429 L535,427 L533,425 L527,422 L523,423 L520,425 L518,425 L515,427 L509,428 L508,427 L506,427 L502,425 L499,425 L498,424 L496,424 L495,423 L493,423 L489,421 L486,421 L485,420 L480,419 L466,430 L467,431 L469,431 L470,432 L472,432 L473,433 L481,435 L482,436 L480,438 L476,439 L473,441 L471,441 L468,443 L466,443 L463,445 L461,445 L456,448 L454,448 L451,450 L449,450 L446,452 L444,452 L436,456 L434,456 L431,458 L429,458 L424,461 L423,465 L420,470 L420,472 L417,477 L417,479 L415,482 L415,484 L412,490 L412,494 L414,498 L416,500 L419,507 L421,509 L423,507 L424,507 L437,494 L464,494 L465,495 L491,495 L492,496 L522,496 L523,497 L560,497 L561,496 L577,496 L593,511 L595,509 L597,504 L599,502 L601,498 L601,495 L595,483 L593,481 L583,460 L579,457 L577,457 L574,455 L572,455 L569,453 L567,453 L564,451 L562,451 L559,449 L557,449 L549,445 L551,443 L563,440 L564,438 L562,435 L562,433 L561,432 L561,430 L560,429 L560,427 L559,426 L559,424 L558,423 L558,421 L557,420 L557,418 L556,417 L556,415 L555,414 L555,412 L554,411 L554,409 L553,408 L553,406 L552,405 L552,403 L551,402 L551,400 L550,399 L550,397 L549,396 L549,394 L548,393 L548,391 L547,390 L547,388 L546,387 L546,385 L545,384 L545,382 L544,381 L544,379 L543,378 L543,376 L541,372 L541,369 L540,368 L540,366 L539,365 L539,363 L538,362 L538,360 L536,356 L543,348 L543,347 L546,344 L546,343 L549,340 L549,339 L553,335 L553,334 L557,331 L561,331 L562,332 L562,342 L564,346 L567,349 L567,350 L570,354 L585,354 L594,343 L594,338 L595,337 L607,352 L607,353 L601,359 L601,360 L602,361 L608,361 L609,362 L615,362 L616,363 L619,363 L623,365 L625,367 L626,366 L626,363 L625,362 L624,355 L623,354 L623,352 L622,351 L620,343 L613,337 L612,337 L610,335 L609,335 L607,333 L606,333 L596,326 L590,325 L589,324 L586,324 L585,323 L581,323 L580,322 L571,321 L570,320 L567,320 L566,319 L559,318 L555,316 L556,315 L559,315 L560,314 L564,314 L565,313 L569,313 L570,312 L574,312 L575,311 L580,311 L581,310 L586,310 L587,309 L594,309 L595,308 L606,308 L609,310 L611,310 L612,311 L614,311 L615,312 L617,312 L618,313 L626,315 L629,317 L631,317 L637,320 L645,322 L648,324 Z" fill="#131213" stroke="none"/>
<path d="M372,325 L373,326 L375,324 L384,320 L386,318 L391,316 L393,314 L409,306 L415,306 L416,307 L430,307 L431,308 L444,308 L445,309 L456,309 L457,310 L465,310 L466,311 L478,312 L479,313 L484,313 L486,311 L489,310 L490,309 L490,307 L475,288 L462,288 L461,287 L445,287 L444,286 L429,286 L428,285 L412,285 L411,284 L407,286 L404,289 L401,290 L393,296 L390,297 L388,299 L384,301 L380,305 L380,307 L376,315 L375,320 Z" fill="#131213" stroke="none"/>
<path d="M385,96 L378,103 L377,103 L356,124 L355,124 L336,143 L334,144 L332,148 L332,150 L330,153 L330,155 L328,158 L328,160 L326,163 L326,165 L324,168 L324,170 L322,173 L322,175 L320,178 L320,180 L318,183 L318,185 L316,188 L315,193 L313,196 L313,198 L311,201 L311,203 L309,206 L309,208 L307,211 L306,216 L305,217 L305,231 L306,232 L306,255 L307,256 L307,273 L308,274 L308,289 L309,290 L309,306 L310,307 L310,320 L311,321 L312,348 L313,349 L313,352 L314,354 L319,360 L319,361 L329,375 L329,399 L328,400 L328,405 L329,406 L328,407 L328,434 L329,435 L329,439 L328,440 L328,447 L329,449 L328,450 L333,459 L335,461 L336,460 L336,451 L337,450 L337,440 L338,439 L338,430 L339,429 L339,420 L340,419 L340,409 L341,408 L342,388 L343,387 L343,379 L344,378 L344,371 L345,370 L345,363 L346,362 L346,355 L347,354 L347,346 L348,345 L348,338 L349,337 L349,330 L350,329 L350,320 L351,319 L351,311 L352,310 L353,293 L354,292 L354,285 L355,284 L355,275 L356,274 L356,265 L357,264 L357,255 L358,254 L358,246 L359,245 L359,240 L360,239 L360,237 L361,236 L361,234 L362,233 L362,231 L363,230 L363,228 L364,227 L364,225 L365,224 L365,222 L366,221 L366,219 L367,218 L367,216 L368,215 L368,213 L369,212 L369,210 L370,209 L370,207 L371,206 L371,204 L372,203 L372,201 L373,200 L373,198 L374,197 L374,195 L375,194 L377,186 L379,183 L379,180 L381,177 L382,177 L385,174 L386,174 L388,172 L389,172 L391,170 L392,170 L394,168 L401,164 L404,161 L405,161 L416,153 L420,153 L421,154 L425,154 L426,155 L431,155 L432,156 L437,156 L438,157 L443,157 L444,158 L454,159 L455,160 L460,160 L461,161 L471,162 L472,163 L477,163 L478,164 L482,164 L483,165 L494,166 L495,167 L505,168 L506,169 L510,169 L511,170 L574,170 L575,171 L624,171 L635,184 L635,185 L638,188 L638,189 L641,192 L641,193 L644,196 L644,197 L647,200 L647,201 L650,204 L650,205 L653,208 L653,209 L657,214 L657,219 L656,220 L656,226 L655,227 L655,232 L654,233 L654,239 L653,240 L653,245 L652,246 L652,252 L651,253 L651,258 L650,259 L650,265 L649,266 L649,271 L648,272 L647,284 L649,286 L654,297 L656,299 L670,327 L670,490 L671,491 L672,490 L672,486 L674,482 L674,479 L676,475 L676,472 L678,468 L678,465 L679,464 L679,461 L680,460 L680,456 L681,455 L681,450 L682,449 L682,444 L683,443 L683,437 L684,436 L684,431 L685,430 L686,418 L687,417 L688,405 L689,404 L689,400 L690,399 L690,394 L691,393 L691,388 L692,387 L693,377 L694,375 L705,365 L706,365 L711,360 L712,358 L712,350 L713,349 L713,341 L714,340 L714,331 L715,330 L715,323 L716,322 L716,313 L717,312 L717,305 L718,304 L718,295 L719,294 L719,286 L720,285 L720,277 L721,276 L721,268 L722,267 L722,259 L723,258 L723,250 L724,249 L725,232 L726,231 L726,224 L727,223 L727,215 L718,197 L718,195 L708,176 L708,174 L697,153 L697,151 L694,145 L630,81 L630,80 L623,73 L622,71 L619,71 L618,70 L615,70 L614,69 L611,69 L610,68 L606,68 L605,67 L602,67 L601,66 L598,66 L597,65 L594,65 L593,64 L590,64 L589,63 L585,63 L584,62 L581,62 L580,61 L577,61 L576,60 L573,60 L572,59 L569,59 L568,58 L565,58 L564,57 L561,57 L560,56 L557,56 L556,55 L553,55 L552,54 L548,54 L547,53 L544,53 L543,52 L540,52 L539,51 L536,51 L535,50 L532,50 L531,49 L524,49 L523,48 L517,48 L516,47 L509,47 L508,46 L501,46 L500,45 L496,45 L486,50 L484,50 L475,55 L473,55 L464,60 L462,60 L453,65 L451,65 L440,71 L438,71 L427,77 L425,77 L412,84 L410,84 L397,91 L395,91 Z" fill="#131213" stroke="none"/>
</svg>